# xmcd
#
# Track frame offsets: 
#        150
#        45424
#        71326
#        107766
#        146853
#        179571
#        217628
#        234968
#        272843
#        300606
#        327685
#
# Disc length: 4740 seconds
#
# Revision: 0
# Processed by: cddbd v1.5.2PL0 Copyright (c) Steve Scherf et al.
# Submitted via: ExactAudioCopy v0.99pb5
#
DISCID=9d12820b
DTITLE=Doctor G and Funk House - Second Life
DYEAR=2009
DGENRE=Blues
TTITLE0=Second Life
TTITLE1=The Possibility
TTITLE2=Give Your Love To Me
TTITLE3=Stephanie
TTITLE4=Let's Dance Together
TTITLE5=Tell The Truth
TTITLE6=Stephanie PTRE
TTITLE7=That's Not The Way
TTITLE8=Doin' It To The Bone
TTITLE9=Natural Bodybuilder
TTITLE10=Security
EXTD=
EXTT0=
EXTT1=
EXTT2=
EXTT3=
EXTT4=
EXTT5=
EXTT6=
EXTT7=
EXTT8=
EXTT9=
EXTT10=
PLAYORDER=
